<?xml version="1.0" encoding="UTF-8"?>
<!DOCTYPE svg  PUBLIC '-//W3C//DTD SVG 1.1//EN'  'http://www.w3.org/Graphics/SVG/1.1/DTD/svg11.dtd'>
<svg enable-background="new 0 0 1200 1200" fill="#003399" height="20px" width="20px" version="1.1" viewBox="0 0 1200 1200" xml:space="preserve" xmlns="http://www.w3.org/2000/svg">
<path d="m600 0c-331.37 0-600 268.63-600 600s268.63 600 600 600 600-268.63 600-600-268.63-600-600-600zm-215.62 238.33c12.362-0.729 23.536 6.66 32.007 19.775l82.031 155.57c8.637 18.434 3.729 38.172-9.155 51.343l-37.573 37.573c-2.319 3.178-3.845 6.757-3.882 10.693 14.409 55.775 58.117 107.22 96.681 142.6 38.562 35.38 80.009 83.281 133.81 94.629 6.65 1.855 14.797 2.52 19.556-1.903l43.652-44.458c15.068-11.421 36.866-16.956 52.954-7.617h0.732l148.02 87.378c21.728 13.619 23.979 39.944 8.423 55.957l-101.95 101.15c-15.056 15.44-35.058 20.631-54.491 20.654-85.948-2.575-167.16-44.759-233.86-88.11-109.49-79.653-209.92-178.45-272.98-297.8-24.182-50.05-52.589-113.91-49.878-169.77 0.242-21.016 5.928-41.605 20.728-55.151l101.95-101.95c7.942-6.758 15.799-10.111 23.217-10.549z"/>
</svg>